<?xml version="1.0" encoding="utf-8" standalone="no"?>
<!DOCTYPE svg PUBLIC "-//W3C//DTD SVG 1.1//EN"
  "http://www.w3.org/Graphics/SVG/1.1/DTD/svg11.dtd">
<svg xmlns:xlink="http://www.w3.org/1999/xlink" width="460.8pt" height="345.6pt" viewBox="0 0 460.8 345.6" xmlns="http://www.w3.org/2000/svg" version="1.1">
 <metadata>
  <rdf:RDF xmlns:dc="http://purl.org/dc/elements/1.1/" xmlns:cc="http://creativecommons.org/ns#" xmlns:rdf="http://www.w3.org/1999/02/22-rdf-syntax-ns#">
   <cc:Work>
    <dc:type rdf:resource="http://purl.org/dc/dcmitype/StillImage"/>
    <dc:date>2023-04-07T18:57:32.604188</dc:date>
    <dc:format>image/svg+xml</dc:format>
    <dc:creator>
     <cc:Agent>
      <dc:title>Matplotlib v3.5.1, https://matplotlib.org/</dc:title>
     </cc:Agent>
    </dc:creator>
   </cc:Work>
  </rdf:RDF>
 </metadata>
 <defs>
  <style type="text/css">*{stroke-linejoin: round; stroke-linecap: butt}</style>
 </defs>
 <g id="figure_1">
  <g id="patch_1">
   <path d="M 0 345.6 
L 460.8 345.6 
L 460.8 0 
L 0 0 
z
" style="fill: #ffffff"/>
  </g>
  <g id="axes_1">
   <g id="patch_2">
    <path d="M 57.6 307.584 
L 414.72 307.584 
L 414.72 41.472 
L 57.6 41.472 
z
" style="fill: #ffffff"/>
   </g>
   <g id="PathCollection_1">
    <defs>
     <path id="mc626fe5804" d="M 0 0.707107 
C 0.187527 0.707107 0.367398 0.632602 0.5 0.5 
C 0.632602 0.367398 0.707107 0.187527 0.707107 0 
C 0.707107 -0.187527 0.632602 -0.367398 0.5 -0.5 
C 0.367398 -0.632602 0.187527 -0.707107 0 -0.707107 
C -0.187527 -0.707107 -0.367398 -0.632602 -0.5 -0.5 
C -0.632602 -0.367398 -0.707107 -0.187527 -0.707107 0 
C -0.707107 0.187527 -0.632602 0.367398 -0.5 0.5 
C -0.367398 0.632602 -0.187527 0.707107 0 0.707107 
z
" style="stroke: #4169e1"/>
    </defs>
    <g clip-path="url(#p9d4f2d7153)">
     <use xlink:href="#mc626fe5804" x="73.832727" y="174.528" style="fill: #4169e1; stroke: #4169e1"/>
     <use xlink:href="#mc626fe5804" x="75.464157" y="174.528" style="fill: #4169e1; stroke: #4169e1"/>
     <use xlink:href="#mc626fe5804" x="77.095587" y="174.528" style="fill: #4169e1; stroke: #4169e1"/>
     <use xlink:href="#mc626fe5804" x="78.727017" y="174.528" style="fill: #4169e1; stroke: #4169e1"/>
     <use xlink:href="#mc626fe5804" x="80.358447" y="174.528" style="fill: #4169e1; stroke: #4169e1"/>
     <use xlink:href="#mc626fe5804" x="81.989877" y="174.528" style="fill: #4169e1; stroke: #4169e1"/>
     <use xlink:href="#mc626fe5804" x="83.621306" y="174.528" style="fill: #4169e1; stroke: #4169e1"/>
     <use xlink:href="#mc626fe5804" x="85.252737" y="174.528" style="fill: #4169e1; stroke: #4169e1"/>
     <use xlink:href="#mc626fe5804" x="86.884167" y="174.528" style="fill: #4169e1; stroke: #4169e1"/>
     <use xlink:href="#mc626fe5804" x="88.515596" y="174.528" style="fill: #4169e1; stroke: #4169e1"/>
     <use xlink:href="#mc626fe5804" x="90.147026" y="174.528" style="fill: #4169e1; stroke: #4169e1"/>
     <use xlink:href="#mc626fe5804" x="91.778457" y="174.528" style="fill: #4169e1; stroke: #4169e1"/>
     <use xlink:href="#mc626fe5804" x="93.409887" y="174.528" style="fill: #4169e1; stroke: #4169e1"/>
     <use xlink:href="#mc626fe5804" x="95.041315" y="174.528" style="fill: #4169e1; stroke: #4169e1"/>
     <use xlink:href="#mc626fe5804" x="96.672746" y="174.528" style="fill: #4169e1; stroke: #4169e1"/>
     <use xlink:href="#mc626fe5804" x="98.304176" y="174.528" style="fill: #4169e1; stroke: #4169e1"/>
     <use xlink:href="#mc626fe5804" x="99.935606" y="174.528" style="fill: #4169e1; stroke: #4169e1"/>
     <use xlink:href="#mc626fe5804" x="101.567036" y="174.528" style="fill: #4169e1; stroke: #4169e1"/>
     <use xlink:href="#mc626fe5804" x="103.198465" y="174.528" style="fill: #4169e1; stroke: #4169e1"/>
     <use xlink:href="#mc626fe5804" x="104.829895" y="174.528" style="fill: #4169e1; stroke: #4169e1"/>
     <use xlink:href="#mc626fe5804" x="106.461327" y="174.528" style="fill: #4169e1; stroke: #4169e1"/>
     <use xlink:href="#mc626fe5804" x="108.092755" y="174.528" style="fill: #4169e1; stroke: #4169e1"/>
     <use xlink:href="#mc626fe5804" x="109.724184" y="174.528" style="fill: #4169e1; stroke: #4169e1"/>
     <use xlink:href="#mc626fe5804" x="111.355616" y="174.528" style="fill: #4169e1; stroke: #4169e1"/>
     <use xlink:href="#mc626fe5804" x="112.987044" y="174.528" style="fill: #4169e1; stroke: #4169e1"/>
     <use xlink:href="#mc626fe5804" x="114.618477" y="174.528" style="fill: #4169e1; stroke: #4169e1"/>
     <use xlink:href="#mc626fe5804" x="116.249905" y="174.528" style="fill: #4169e1; stroke: #4169e1"/>
     <use xlink:href="#mc626fe5804" x="117.881333" y="174.528" style="fill: #4169e1; stroke: #4169e1"/>
     <use xlink:href="#mc626fe5804" x="119.512765" y="174.528" style="fill: #4169e1; stroke: #4169e1"/>
     <use xlink:href="#mc626fe5804" x="121.144194" y="174.528" style="fill: #4169e1; stroke: #4169e1"/>
     <use xlink:href="#mc626fe5804" x="122.775626" y="174.528" style="fill: #4169e1; stroke: #4169e1"/>
     <use xlink:href="#mc626fe5804" x="124.407054" y="174.528" style="fill: #4169e1; stroke: #4169e1"/>
     <use xlink:href="#mc626fe5804" x="126.038483" y="174.528" style="fill: #4169e1; stroke: #4169e1"/>
     <use xlink:href="#mc626fe5804" x="127.669915" y="174.528" style="fill: #4169e1; stroke: #4169e1"/>
     <use xlink:href="#mc626fe5804" x="129.301343" y="174.528" style="fill: #4169e1; stroke: #4169e1"/>
     <use xlink:href="#mc626fe5804" x="130.932775" y="174.528" style="fill: #4169e1; stroke: #4169e1"/>
     <use xlink:href="#mc626fe5804" x="132.564204" y="174.528" style="fill: #4169e1; stroke: #4169e1"/>
     <use xlink:href="#mc626fe5804" x="134.195632" y="174.528" style="fill: #4169e1; stroke: #4169e1"/>
     <use xlink:href="#mc626fe5804" x="135.827064" y="174.528" style="fill: #4169e1; stroke: #4169e1"/>
     <use xlink:href="#mc626fe5804" x="137.458492" y="174.528" style="fill: #4169e1; stroke: #4169e1"/>
     <use xlink:href="#mc626fe5804" x="139.089921" y="174.528" style="fill: #4169e1; stroke: #4169e1"/>
     <use xlink:href="#mc626fe5804" x="140.721357" y="174.528" style="fill: #4169e1; stroke: #4169e1"/>
     <use xlink:href="#mc626fe5804" x="142.352785" y="174.528" style="fill: #4169e1; stroke: #4169e1"/>
     <use xlink:href="#mc626fe5804" x="143.984214" y="174.528" style="fill: #4169e1; stroke: #4169e1"/>
     <use xlink:href="#mc626fe5804" x="145.615642" y="174.528" style="fill: #4169e1; stroke: #4169e1"/>
     <use xlink:href="#mc626fe5804" x="147.24707" y="174.528" style="fill: #4169e1; stroke: #4169e1"/>
     <use xlink:href="#mc626fe5804" x="148.878506" y="174.528" style="fill: #4169e1; stroke: #4169e1"/>
     <use xlink:href="#mc626fe5804" x="150.509935" y="174.528" style="fill: #4169e1; stroke: #4169e1"/>
     <use xlink:href="#mc626fe5804" x="152.141363" y="174.528" style="fill: #4169e1; stroke: #4169e1"/>
     <use xlink:href="#mc626fe5804" x="153.772791" y="174.528" style="fill: #4169e1; stroke: #4169e1"/>
     <use xlink:href="#mc626fe5804" x="155.40422" y="174.528" style="fill: #4169e1; stroke: #4169e1"/>
     <use xlink:href="#mc626fe5804" x="157.035656" y="174.528" style="fill: #4169e1; stroke: #4169e1"/>
     <use xlink:href="#mc626fe5804" x="158.667084" y="174.528" style="fill: #4169e1; stroke: #4169e1"/>
     <use xlink:href="#mc626fe5804" x="160.298512" y="174.528" style="fill: #4169e1; stroke: #4169e1"/>
     <use xlink:href="#mc626fe5804" x="161.929941" y="174.528" style="fill: #4169e1; stroke: #4169e1"/>
     <use xlink:href="#mc626fe5804" x="163.561369" y="174.528" style="fill: #4169e1; stroke: #4169e1"/>
     <use xlink:href="#mc626fe5804" x="165.192805" y="174.528" style="fill: #4169e1; stroke: #4169e1"/>
     <use xlink:href="#mc626fe5804" x="166.824233" y="174.528" style="fill: #4169e1; stroke: #4169e1"/>
     <use xlink:href="#mc626fe5804" x="168.455662" y="174.528" style="fill: #4169e1; stroke: #4169e1"/>
     <use xlink:href="#mc626fe5804" x="170.08709" y="174.528" style="fill: #4169e1; stroke: #4169e1"/>
     <use xlink:href="#mc626fe5804" x="171.718518" y="174.528" style="fill: #4169e1; stroke: #4169e1"/>
     <use xlink:href="#mc626fe5804" x="173.349954" y="174.528" style="fill: #4169e1; stroke: #4169e1"/>
     <use xlink:href="#mc626fe5804" x="174.981383" y="174.528" style="fill: #4169e1; stroke: #4169e1"/>
     <use xlink:href="#mc626fe5804" x="176.612811" y="174.528" style="fill: #4169e1; stroke: #4169e1"/>
     <use xlink:href="#mc626fe5804" x="178.244239" y="174.528" style="fill: #4169e1; stroke: #4169e1"/>
     <use xlink:href="#mc626fe5804" x="179.875668" y="174.528" style="fill: #4169e1; stroke: #4169e1"/>
     <use xlink:href="#mc626fe5804" x="181.507104" y="174.528" style="fill: #4169e1; stroke: #4169e1"/>
     <use xlink:href="#mc626fe5804" x="183.138532" y="174.528" style="fill: #4169e1; stroke: #4169e1"/>
     <use xlink:href="#mc626fe5804" x="184.76996" y="174.528" style="fill: #4169e1; stroke: #4169e1"/>
     <use xlink:href="#mc626fe5804" x="186.401389" y="174.528" style="fill: #4169e1; stroke: #4169e1"/>
     <use xlink:href="#mc626fe5804" x="188.032817" y="174.528" style="fill: #4169e1; stroke: #4169e1"/>
     <use xlink:href="#mc626fe5804" x="189.664253" y="174.528" style="fill: #4169e1; stroke: #4169e1"/>
     <use xlink:href="#mc626fe5804" x="191.295681" y="174.528" style="fill: #4169e1; stroke: #4169e1"/>
     <use xlink:href="#mc626fe5804" x="192.92711" y="174.528" style="fill: #4169e1; stroke: #4169e1"/>
     <use xlink:href="#mc626fe5804" x="194.558538" y="174.528" style="fill: #4169e1; stroke: #4169e1"/>
     <use xlink:href="#mc626fe5804" x="196.189966" y="174.528" style="fill: #4169e1; stroke: #4169e1"/>
     <use xlink:href="#mc626fe5804" x="197.821403" y="174.528" style="fill: #4169e1; stroke: #4169e1"/>
     <use xlink:href="#mc626fe5804" x="199.452831" y="174.528" style="fill: #4169e1; stroke: #4169e1"/>
     <use xlink:href="#mc626fe5804" x="201.084259" y="174.528" style="fill: #4169e1; stroke: #4169e1"/>
     <use xlink:href="#mc626fe5804" x="202.715688" y="174.528" style="fill: #4169e1; stroke: #4169e1"/>
     <use xlink:href="#mc626fe5804" x="204.347124" y="174.528" style="fill: #4169e1; stroke: #4169e1"/>
     <use xlink:href="#mc626fe5804" x="205.978544" y="174.528" style="fill: #4169e1; stroke: #4169e1"/>
     <use xlink:href="#mc626fe5804" x="207.60998" y="174.528" style="fill: #4169e1; stroke: #4169e1"/>
     <use xlink:href="#mc626fe5804" x="209.241416" y="174.528" style="fill: #4169e1; stroke: #4169e1"/>
     <use xlink:href="#mc626fe5804" x="210.872837" y="174.528" style="fill: #4169e1; stroke: #4169e1"/>
     <use xlink:href="#mc626fe5804" x="212.504273" y="174.528" style="fill: #4169e1; stroke: #4169e1"/>
     <use xlink:href="#mc626fe5804" x="214.135694" y="174.528" style="fill: #4169e1; stroke: #4169e1"/>
     <use xlink:href="#mc626fe5804" x="215.76713" y="174.528" style="fill: #4169e1; stroke: #4169e1"/>
     <use xlink:href="#mc626fe5804" x="217.398566" y="174.528" style="fill: #4169e1; stroke: #4169e1"/>
     <use xlink:href="#mc626fe5804" x="219.029986" y="174.528" style="fill: #4169e1; stroke: #4169e1"/>
     <use xlink:href="#mc626fe5804" x="220.661422" y="174.528" style="fill: #4169e1; stroke: #4169e1"/>
     <use xlink:href="#mc626fe5804" x="222.292843" y="174.528" style="fill: #4169e1; stroke: #4169e1"/>
     <use xlink:href="#mc626fe5804" x="223.924279" y="174.528" style="fill: #4169e1; stroke: #4169e1"/>
     <use xlink:href="#mc626fe5804" x="225.555715" y="174.528" style="fill: #4169e1; stroke: #4169e1"/>
     <use xlink:href="#mc626fe5804" x="227.187136" y="174.528" style="fill: #4169e1; stroke: #4169e1"/>
     <use xlink:href="#mc626fe5804" x="228.818572" y="174.528" style="fill: #4169e1; stroke: #4169e1"/>
     <use xlink:href="#mc626fe5804" x="230.449992" y="174.528" style="fill: #4169e1; stroke: #4169e1"/>
     <use xlink:href="#mc626fe5804" x="232.081428" y="174.528" style="fill: #4169e1; stroke: #4169e1"/>
     <use xlink:href="#mc626fe5804" x="233.712865" y="174.528" style="fill: #4169e1; stroke: #4169e1"/>
     <use xlink:href="#mc626fe5804" x="235.344285" y="174.528" style="fill: #4169e1; stroke: #4169e1"/>
     <use xlink:href="#mc626fe5804" x="236.975721" y="174.528" style="fill: #4169e1; stroke: #4169e1"/>
     <use xlink:href="#mc626fe5804" x="238.607142" y="174.528" style="fill: #4169e1; stroke: #4169e1"/>
     <use xlink:href="#mc626fe5804" x="240.238578" y="174.528" style="fill: #4169e1; stroke: #4169e1"/>
     <use xlink:href="#mc626fe5804" x="241.870014" y="174.528" style="fill: #4169e1; stroke: #4169e1"/>
     <use xlink:href="#mc626fe5804" x="243.501434" y="174.528" style="fill: #4169e1; stroke: #4169e1"/>
     <use xlink:href="#mc626fe5804" x="245.132871" y="174.528" style="fill: #4169e1; stroke: #4169e1"/>
     <use xlink:href="#mc626fe5804" x="246.764291" y="174.528" style="fill: #4169e1; stroke: #4169e1"/>
     <use xlink:href="#mc626fe5804" x="248.395727" y="174.528" style="fill: #4169e1; stroke: #4169e1"/>
     <use xlink:href="#mc626fe5804" x="250.027163" y="174.528" style="fill: #4169e1; stroke: #4169e1"/>
     <use xlink:href="#mc626fe5804" x="251.658584" y="174.528" style="fill: #4169e1; stroke: #4169e1"/>
     <use xlink:href="#mc626fe5804" x="253.29002" y="174.528" style="fill: #4169e1; stroke: #4169e1"/>
     <use xlink:href="#mc626fe5804" x="254.92144" y="174.528" style="fill: #4169e1; stroke: #4169e1"/>
     <use xlink:href="#mc626fe5804" x="256.552877" y="174.528" style="fill: #4169e1; stroke: #4169e1"/>
     <use xlink:href="#mc626fe5804" x="258.184313" y="174.528" style="fill: #4169e1; stroke: #4169e1"/>
     <use xlink:href="#mc626fe5804" x="259.815733" y="174.528" style="fill: #4169e1; stroke: #4169e1"/>
     <use xlink:href="#mc626fe5804" x="261.447169" y="174.528" style="fill: #4169e1; stroke: #4169e1"/>
     <use xlink:href="#mc626fe5804" x="263.07859" y="174.528" style="fill: #4169e1; stroke: #4169e1"/>
     <use xlink:href="#mc626fe5804" x="264.710026" y="174.528" style="fill: #4169e1; stroke: #4169e1"/>
     <use xlink:href="#mc626fe5804" x="266.341462" y="174.528" style="fill: #4169e1; stroke: #4169e1"/>
     <use xlink:href="#mc626fe5804" x="267.972883" y="174.528" style="fill: #4169e1; stroke: #4169e1"/>
     <use xlink:href="#mc626fe5804" x="269.604319" y="174.528" style="fill: #4169e1; stroke: #4169e1"/>
     <use xlink:href="#mc626fe5804" x="271.235739" y="174.528" style="fill: #4169e1; stroke: #4169e1"/>
     <use xlink:href="#mc626fe5804" x="272.867175" y="174.528" style="fill: #4169e1; stroke: #4169e1"/>
     <use xlink:href="#mc626fe5804" x="274.498611" y="174.528" style="fill: #4169e1; stroke: #4169e1"/>
     <use xlink:href="#mc626fe5804" x="276.130032" y="174.528" style="fill: #4169e1; stroke: #4169e1"/>
     <use xlink:href="#mc626fe5804" x="277.761468" y="174.528" style="fill: #4169e1; stroke: #4169e1"/>
     <use xlink:href="#mc626fe5804" x="279.392889" y="174.528" style="fill: #4169e1; stroke: #4169e1"/>
     <use xlink:href="#mc626fe5804" x="281.024325" y="174.528" style="fill: #4169e1; stroke: #4169e1"/>
     <use xlink:href="#mc626fe5804" x="282.655761" y="174.528" style="fill: #4169e1; stroke: #4169e1"/>
     <use xlink:href="#mc626fe5804" x="284.287181" y="174.528" style="fill: #4169e1; stroke: #4169e1"/>
     <use xlink:href="#mc626fe5804" x="285.918617" y="174.528" style="fill: #4169e1; stroke: #4169e1"/>
     <use xlink:href="#mc626fe5804" x="287.550038" y="174.528" style="fill: #4169e1; stroke: #4169e1"/>
     <use xlink:href="#mc626fe5804" x="289.181474" y="174.528" style="fill: #4169e1; stroke: #4169e1"/>
     <use xlink:href="#mc626fe5804" x="290.81291" y="174.528" style="fill: #4169e1; stroke: #4169e1"/>
     <use xlink:href="#mc626fe5804" x="292.444331" y="174.528" style="fill: #4169e1; stroke: #4169e1"/>
     <use xlink:href="#mc626fe5804" x="294.075767" y="174.528" style="fill: #4169e1; stroke: #4169e1"/>
     <use xlink:href="#mc626fe5804" x="295.707187" y="174.528" style="fill: #4169e1; stroke: #4169e1"/>
     <use xlink:href="#mc626fe5804" x="297.338623" y="174.528" style="fill: #4169e1; stroke: #4169e1"/>
     <use xlink:href="#mc626fe5804" x="298.97006" y="174.528" style="fill: #4169e1; stroke: #4169e1"/>
     <use xlink:href="#mc626fe5804" x="300.60148" y="174.528" style="fill: #4169e1; stroke: #4169e1"/>
     <use xlink:href="#mc626fe5804" x="302.232916" y="174.528" style="fill: #4169e1; stroke: #4169e1"/>
     <use xlink:href="#mc626fe5804" x="303.864337" y="174.528" style="fill: #4169e1; stroke: #4169e1"/>
     <use xlink:href="#mc626fe5804" x="305.495773" y="174.528" style="fill: #4169e1; stroke: #4169e1"/>
     <use xlink:href="#mc626fe5804" x="307.127209" y="174.528" style="fill: #4169e1; stroke: #4169e1"/>
     <use xlink:href="#mc626fe5804" x="308.75863" y="174.528" style="fill: #4169e1; stroke: #4169e1"/>
     <use xlink:href="#mc626fe5804" x="310.390066" y="174.528" style="fill: #4169e1; stroke: #4169e1"/>
     <use xlink:href="#mc626fe5804" x="312.021486" y="174.528" style="fill: #4169e1; stroke: #4169e1"/>
     <use xlink:href="#mc626fe5804" x="313.652922" y="174.528" style="fill: #4169e1; stroke: #4169e1"/>
     <use xlink:href="#mc626fe5804" x="315.284358" y="174.528" style="fill: #4169e1; stroke: #4169e1"/>
     <use xlink:href="#mc626fe5804" x="316.915779" y="174.528" style="fill: #4169e1; stroke: #4169e1"/>
     <use xlink:href="#mc626fe5804" x="318.547215" y="174.528" style="fill: #4169e1; stroke: #4169e1"/>
     <use xlink:href="#mc626fe5804" x="320.178636" y="174.528" style="fill: #4169e1; stroke: #4169e1"/>
     <use xlink:href="#mc626fe5804" x="321.810072" y="174.528" style="fill: #4169e1; stroke: #4169e1"/>
     <use xlink:href="#mc626fe5804" x="323.441508" y="174.528" style="fill: #4169e1; stroke: #4169e1"/>
     <use xlink:href="#mc626fe5804" x="325.072928" y="174.528" style="fill: #4169e1; stroke: #4169e1"/>
     <use xlink:href="#mc626fe5804" x="326.704364" y="174.528" style="fill: #4169e1; stroke: #4169e1"/>
     <use xlink:href="#mc626fe5804" x="328.335785" y="174.528" style="fill: #4169e1; stroke: #4169e1"/>
     <use xlink:href="#mc626fe5804" x="329.967221" y="174.528" style="fill: #4169e1; stroke: #4169e1"/>
     <use xlink:href="#mc626fe5804" x="331.598657" y="174.528" style="fill: #4169e1; stroke: #4169e1"/>
     <use xlink:href="#mc626fe5804" x="333.230078" y="174.528" style="fill: #4169e1; stroke: #4169e1"/>
     <use xlink:href="#mc626fe5804" x="334.861514" y="174.528" style="fill: #4169e1; stroke: #4169e1"/>
     <use xlink:href="#mc626fe5804" x="336.49295" y="174.528" style="fill: #4169e1; stroke: #4169e1"/>
     <use xlink:href="#mc626fe5804" x="338.124386" y="174.528" style="fill: #4169e1; stroke: #4169e1"/>
     <use xlink:href="#mc626fe5804" x="339.755791" y="174.528" style="fill: #4169e1; stroke: #4169e1"/>
     <use xlink:href="#mc626fe5804" x="341.387227" y="174.528" style="fill: #4169e1; stroke: #4169e1"/>
     <use xlink:href="#mc626fe5804" x="343.018663" y="174.528" style="fill: #4169e1; stroke: #4169e1"/>
     <use xlink:href="#mc626fe5804" x="344.650099" y="174.528" style="fill: #4169e1; stroke: #4169e1"/>
     <use xlink:href="#mc626fe5804" x="346.281535" y="174.528" style="fill: #4169e1; stroke: #4169e1"/>
     <use xlink:href="#mc626fe5804" x="347.91294" y="174.528" style="fill: #4169e1; stroke: #4169e1"/>
     <use xlink:href="#mc626fe5804" x="349.544376" y="174.528" style="fill: #4169e1; stroke: #4169e1"/>
     <use xlink:href="#mc626fe5804" x="351.175813" y="174.528" style="fill: #4169e1; stroke: #4169e1"/>
     <use xlink:href="#mc626fe5804" x="352.807249" y="174.528" style="fill: #4169e1; stroke: #4169e1"/>
     <use xlink:href="#mc626fe5804" x="354.438685" y="174.528" style="fill: #4169e1; stroke: #4169e1"/>
     <use xlink:href="#mc626fe5804" x="356.07009" y="174.528" style="fill: #4169e1; stroke: #4169e1"/>
     <use xlink:href="#mc626fe5804" x="357.701526" y="174.528" style="fill: #4169e1; stroke: #4169e1"/>
     <use xlink:href="#mc626fe5804" x="359.332962" y="174.528" style="fill: #4169e1; stroke: #4169e1"/>
     <use xlink:href="#mc626fe5804" x="360.964398" y="174.528" style="fill: #4169e1; stroke: #4169e1"/>
     <use xlink:href="#mc626fe5804" x="362.595834" y="174.528" style="fill: #4169e1; stroke: #4169e1"/>
     <use xlink:href="#mc626fe5804" x="364.227239" y="174.528" style="fill: #4169e1; stroke: #4169e1"/>
     <use xlink:href="#mc626fe5804" x="365.858675" y="174.528" style="fill: #4169e1; stroke: #4169e1"/>
     <use xlink:href="#mc626fe5804" x="367.490111" y="174.528" style="fill: #4169e1; stroke: #4169e1"/>
     <use xlink:href="#mc626fe5804" x="369.121547" y="174.528" style="fill: #4169e1; stroke: #4169e1"/>
     <use xlink:href="#mc626fe5804" x="370.752983" y="174.528" style="fill: #4169e1; stroke: #4169e1"/>
     <use xlink:href="#mc626fe5804" x="372.384388" y="174.528" style="fill: #4169e1; stroke: #4169e1"/>
     <use xlink:href="#mc626fe5804" x="374.015825" y="174.528" style="fill: #4169e1; stroke: #4169e1"/>
     <use xlink:href="#mc626fe5804" x="375.647261" y="174.528" style="fill: #4169e1; stroke: #4169e1"/>
     <use xlink:href="#mc626fe5804" x="377.278697" y="174.528" style="fill: #4169e1; stroke: #4169e1"/>
     <use xlink:href="#mc626fe5804" x="378.910133" y="174.528" style="fill: #4169e1; stroke: #4169e1"/>
     <use xlink:href="#mc626fe5804" x="380.541538" y="174.528" style="fill: #4169e1; stroke: #4169e1"/>
     <use xlink:href="#mc626fe5804" x="382.172974" y="174.528" style="fill: #4169e1; stroke: #4169e1"/>
     <use xlink:href="#mc626fe5804" x="383.80441" y="174.528" style="fill: #4169e1; stroke: #4169e1"/>
     <use xlink:href="#mc626fe5804" x="385.435846" y="174.528" style="fill: #4169e1; stroke: #4169e1"/>
     <use xlink:href="#mc626fe5804" x="387.067282" y="174.528" style="fill: #4169e1; stroke: #4169e1"/>
     <use xlink:href="#mc626fe5804" x="388.698687" y="174.528" style="fill: #4169e1; stroke: #4169e1"/>
     <use xlink:href="#mc626fe5804" x="390.330123" y="174.528" style="fill: #4169e1; stroke: #4169e1"/>
     <use xlink:href="#mc626fe5804" x="391.961559" y="174.528" style="fill: #4169e1; stroke: #4169e1"/>
     <use xlink:href="#mc626fe5804" x="393.592996" y="174.528" style="fill: #4169e1; stroke: #4169e1"/>
     <use xlink:href="#mc626fe5804" x="395.224432" y="174.528" style="fill: #4169e1; stroke: #4169e1"/>
     <use xlink:href="#mc626fe5804" x="396.855837" y="174.528" style="fill: #4169e1; stroke: #4169e1"/>
     <use xlink:href="#mc626fe5804" x="398.487273" y="174.528" style="fill: #4169e1; stroke: #4169e1"/>
    </g>
   </g>
   <g id="PathCollection_2">
    <g clip-path="url(#p9d4f2d7153)"/>
   </g>
   <g id="PathCollection_3">
    <g clip-path="url(#p9d4f2d7153)"/>
   </g>
   <g id="matplotlib.axis_1">
    <g id="xtick_1">
     <g id="line2d_1">
      <defs>
       <path id="m80711cf689" d="M 0 0 
L 0 3.5 
" style="stroke: #000000; stroke-width: 0.8"/>
      </defs>
      <g>
       <use xlink:href="#m80711cf689" x="72.201297" y="307.584" style="stroke: #000000; stroke-width: 0.8"/>
      </g>
     </g>
     <g id="text_1">
      <!-- 0.0 -->
      <g transform="translate(64.249735 322.182437)scale(0.1 -0.1)">
       <defs>
        <path id="DejaVuSans-30" d="M 2034 4250 
Q 1547 4250 1301 3770 
Q 1056 3291 1056 2328 
Q 1056 1369 1301 889 
Q 1547 409 2034 409 
Q 2525 409 2770 889 
Q 3016 1369 3016 2328 
Q 3016 3291 2770 3770 
Q 2525 4250 2034 4250 
z
M 2034 4750 
Q 2819 4750 3233 4129 
Q 3647 3509 3647 2328 
Q 3647 1150 3233 529 
Q 2819 -91 2034 -91 
Q 1250 -91 836 529 
Q 422 1150 422 2328 
Q 422 3509 836 4129 
Q 1250 4750 2034 4750 
z
" transform="scale(0.015625)"/>
        <path id="DejaVuSans-2e" d="M 684 794 
L 1344 794 
L 1344 0 
L 684 0 
L 684 794 
z
" transform="scale(0.015625)"/>
       </defs>
       <use xlink:href="#DejaVuSans-30"/>
       <use xlink:href="#DejaVuSans-2e" x="63.623047"/>
       <use xlink:href="#DejaVuSans-30" x="95.410156"/>
      </g>
     </g>
    </g>
    <g id="xtick_2">
     <g id="line2d_2">
      <g>
       <use xlink:href="#m80711cf689" x="112.987044" y="307.584" style="stroke: #000000; stroke-width: 0.8"/>
      </g>
     </g>
     <g id="text_2">
      <!-- 2.5 -->
      <g transform="translate(105.035482 322.182437)scale(0.1 -0.1)">
       <defs>
        <path id="DejaVuSans-32" d="M 1228 531 
L 3431 531 
L 3431 0 
L 469 0 
L 469 531 
Q 828 903 1448 1529 
Q 2069 2156 2228 2338 
Q 2531 2678 2651 2914 
Q 2772 3150 2772 3378 
Q 2772 3750 2511 3984 
Q 2250 4219 1831 4219 
Q 1534 4219 1204 4116 
Q 875 4013 500 3803 
L 500 4441 
Q 881 4594 1212 4672 
Q 1544 4750 1819 4750 
Q 2544 4750 2975 4387 
Q 3406 4025 3406 3419 
Q 3406 3131 3298 2873 
Q 3191 2616 2906 2266 
Q 2828 2175 2409 1742 
Q 1991 1309 1228 531 
z
" transform="scale(0.015625)"/>
        <path id="DejaVuSans-35" d="M 691 4666 
L 3169 4666 
L 3169 4134 
L 1269 4134 
L 1269 2991 
Q 1406 3038 1543 3061 
Q 1681 3084 1819 3084 
Q 2600 3084 3056 2656 
Q 3513 2228 3513 1497 
Q 3513 744 3044 326 
Q 2575 -91 1722 -91 
Q 1428 -91 1123 -41 
Q 819 9 494 109 
L 494 744 
Q 775 591 1075 516 
Q 1375 441 1709 441 
Q 2250 441 2565 725 
Q 2881 1009 2881 1497 
Q 2881 1984 2565 2268 
Q 2250 2553 1709 2553 
Q 1456 2553 1204 2497 
Q 953 2441 691 2322 
L 691 4666 
z
" transform="scale(0.015625)"/>
       </defs>
       <use xlink:href="#DejaVuSans-32"/>
       <use xlink:href="#DejaVuSans-2e" x="63.623047"/>
       <use xlink:href="#DejaVuSans-35" x="95.410156"/>
      </g>
     </g>
    </g>
    <g id="xtick_3">
     <g id="line2d_3">
      <g>
       <use xlink:href="#m80711cf689" x="153.772791" y="307.584" style="stroke: #000000; stroke-width: 0.8"/>
      </g>
     </g>
     <g id="text_3">
      <!-- 5.0 -->
      <g transform="translate(145.821229 322.182437)scale(0.1 -0.1)">
       <use xlink:href="#DejaVuSans-35"/>
       <use xlink:href="#DejaVuSans-2e" x="63.623047"/>
       <use xlink:href="#DejaVuSans-30" x="95.410156"/>
      </g>
     </g>
    </g>
    <g id="xtick_4">
     <g id="line2d_4">
      <g>
       <use xlink:href="#m80711cf689" x="194.558538" y="307.584" style="stroke: #000000; stroke-width: 0.8"/>
      </g>
     </g>
     <g id="text_4">
      <!-- 7.5 -->
      <g transform="translate(186.606976 322.182437)scale(0.1 -0.1)">
       <defs>
        <path id="DejaVuSans-37" d="M 525 4666 
L 3525 4666 
L 3525 4397 
L 1831 0 
L 1172 0 
L 2766 4134 
L 525 4134 
L 525 4666 
z
" transform="scale(0.015625)"/>
       </defs>
       <use xlink:href="#DejaVuSans-37"/>
       <use xlink:href="#DejaVuSans-2e" x="63.623047"/>
       <use xlink:href="#DejaVuSans-35" x="95.410156"/>
      </g>
     </g>
    </g>
    <g id="xtick_5">
     <g id="line2d_5">
      <g>
       <use xlink:href="#m80711cf689" x="235.344285" y="307.584" style="stroke: #000000; stroke-width: 0.8"/>
      </g>
     </g>
     <g id="text_5">
      <!-- 10.0 -->
      <g transform="translate(224.211473 322.182437)scale(0.1 -0.1)">
       <defs>
        <path id="DejaVuSans-31" d="M 794 531 
L 1825 531 
L 1825 4091 
L 703 3866 
L 703 4441 
L 1819 4666 
L 2450 4666 
L 2450 531 
L 3481 531 
L 3481 0 
L 794 0 
L 794 531 
z
" transform="scale(0.015625)"/>
       </defs>
       <use xlink:href="#DejaVuSans-31"/>
       <use xlink:href="#DejaVuSans-30" x="63.623047"/>
       <use xlink:href="#DejaVuSans-2e" x="127.246094"/>
       <use xlink:href="#DejaVuSans-30" x="159.033203"/>
      </g>
     </g>
    </g>
    <g id="xtick_6">
     <g id="line2d_6">
      <g>
       <use xlink:href="#m80711cf689" x="276.130032" y="307.584" style="stroke: #000000; stroke-width: 0.8"/>
      </g>
     </g>
     <g id="text_6">
      <!-- 12.5 -->
      <g transform="translate(264.997219 322.182437)scale(0.1 -0.1)">
       <use xlink:href="#DejaVuSans-31"/>
       <use xlink:href="#DejaVuSans-32" x="63.623047"/>
       <use xlink:href="#DejaVuSans-2e" x="127.246094"/>
       <use xlink:href="#DejaVuSans-35" x="159.033203"/>
      </g>
     </g>
    </g>
    <g id="xtick_7">
     <g id="line2d_7">
      <g>
       <use xlink:href="#m80711cf689" x="316.915779" y="307.584" style="stroke: #000000; stroke-width: 0.8"/>
      </g>
     </g>
     <g id="text_7">
      <!-- 15.0 -->
      <g transform="translate(305.782966 322.182437)scale(0.1 -0.1)">
       <use xlink:href="#DejaVuSans-31"/>
       <use xlink:href="#DejaVuSans-35" x="63.623047"/>
       <use xlink:href="#DejaVuSans-2e" x="127.246094"/>
       <use xlink:href="#DejaVuSans-30" x="159.033203"/>
      </g>
     </g>
    </g>
    <g id="xtick_8">
     <g id="line2d_8">
      <g>
       <use xlink:href="#m80711cf689" x="357.701526" y="307.584" style="stroke: #000000; stroke-width: 0.8"/>
      </g>
     </g>
     <g id="text_8">
      <!-- 17.5 -->
      <g transform="translate(346.568713 322.182437)scale(0.1 -0.1)">
       <use xlink:href="#DejaVuSans-31"/>
       <use xlink:href="#DejaVuSans-37" x="63.623047"/>
       <use xlink:href="#DejaVuSans-2e" x="127.246094"/>
       <use xlink:href="#DejaVuSans-35" x="159.033203"/>
      </g>
     </g>
    </g>
    <g id="xtick_9">
     <g id="line2d_9">
      <g>
       <use xlink:href="#m80711cf689" x="398.487273" y="307.584" style="stroke: #000000; stroke-width: 0.8"/>
      </g>
     </g>
     <g id="text_9">
      <!-- 20.0 -->
      <g transform="translate(387.35446 322.182437)scale(0.1 -0.1)">
       <use xlink:href="#DejaVuSans-32"/>
       <use xlink:href="#DejaVuSans-30" x="63.623047"/>
       <use xlink:href="#DejaVuSans-2e" x="127.246094"/>
       <use xlink:href="#DejaVuSans-30" x="159.033203"/>
      </g>
     </g>
    </g>
    <g id="text_10">
     <!-- Time -->
     <g transform="translate(223.926406 335.860562)scale(0.1 -0.1)">
      <defs>
       <path id="DejaVuSans-54" d="M -19 4666 
L 3928 4666 
L 3928 4134 
L 2272 4134 
L 2272 0 
L 1638 0 
L 1638 4134 
L -19 4134 
L -19 4666 
z
" transform="scale(0.015625)"/>
       <path id="DejaVuSans-69" d="M 603 3500 
L 1178 3500 
L 1178 0 
L 603 0 
L 603 3500 
z
M 603 4863 
L 1178 4863 
L 1178 4134 
L 603 4134 
L 603 4863 
z
" transform="scale(0.015625)"/>
       <path id="DejaVuSans-6d" d="M 3328 2828 
Q 3544 3216 3844 3400 
Q 4144 3584 4550 3584 
Q 5097 3584 5394 3201 
Q 5691 2819 5691 2113 
L 5691 0 
L 5113 0 
L 5113 2094 
Q 5113 2597 4934 2840 
Q 4756 3084 4391 3084 
Q 3944 3084 3684 2787 
Q 3425 2491 3425 1978 
L 3425 0 
L 2847 0 
L 2847 2094 
Q 2847 2600 2669 2842 
Q 2491 3084 2119 3084 
Q 1678 3084 1418 2786 
Q 1159 2488 1159 1978 
L 1159 0 
L 581 0 
L 581 3500 
L 1159 3500 
L 1159 2956 
Q 1356 3278 1631 3431 
Q 1906 3584 2284 3584 
Q 2666 3584 2933 3390 
Q 3200 3197 3328 2828 
z
" transform="scale(0.015625)"/>
       <path id="DejaVuSans-65" d="M 3597 1894 
L 3597 1613 
L 953 1613 
Q 991 1019 1311 708 
Q 1631 397 2203 397 
Q 2534 397 2845 478 
Q 3156 559 3463 722 
L 3463 178 
Q 3153 47 2828 -22 
Q 2503 -91 2169 -91 
Q 1331 -91 842 396 
Q 353 884 353 1716 
Q 353 2575 817 3079 
Q 1281 3584 2069 3584 
Q 2775 3584 3186 3129 
Q 3597 2675 3597 1894 
z
M 3022 2063 
Q 3016 2534 2758 2815 
Q 2500 3097 2075 3097 
Q 1594 3097 1305 2825 
Q 1016 2553 972 2059 
L 3022 2063 
z
" transform="scale(0.015625)"/>
      </defs>
      <use xlink:href="#DejaVuSans-54"/>
      <use xlink:href="#DejaVuSans-69" x="57.958984"/>
      <use xlink:href="#DejaVuSans-6d" x="85.742188"/>
      <use xlink:href="#DejaVuSans-65" x="183.154297"/>
     </g>
    </g>
   </g>
   <g id="matplotlib.axis_2">
    <g id="ytick_1">
     <g id="line2d_10">
      <defs>
       <path id="mb4c2609575" d="M 0 0 
L -3.5 0 
" style="stroke: #000000; stroke-width: 0.8"/>
      </defs>
      <g>
       <use xlink:href="#mb4c2609575" x="57.6" y="271.296" style="stroke: #000000; stroke-width: 0.8"/>
      </g>
     </g>
     <g id="text_11">
      <!-- −0.04 -->
      <g transform="translate(19.954687 275.095219)scale(0.1 -0.1)">
       <defs>
        <path id="DejaVuSans-2212" d="M 678 2272 
L 4684 2272 
L 4684 1741 
L 678 1741 
L 678 2272 
z
" transform="scale(0.015625)"/>
        <path id="DejaVuSans-34" d="M 2419 4116 
L 825 1625 
L 2419 1625 
L 2419 4116 
z
M 2253 4666 
L 3047 4666 
L 3047 1625 
L 3713 1625 
L 3713 1100 
L 3047 1100 
L 3047 0 
L 2419 0 
L 2419 1100 
L 313 1100 
L 313 1709 
L 2253 4666 
z
" transform="scale(0.015625)"/>
       </defs>
       <use xlink:href="#DejaVuSans-2212"/>
       <use xlink:href="#DejaVuSans-30" x="83.789062"/>
       <use xlink:href="#DejaVuSans-2e" x="147.412109"/>
       <use xlink:href="#DejaVuSans-30" x="179.199219"/>
       <use xlink:href="#DejaVuSans-34" x="242.822266"/>
      </g>
     </g>
    </g>
    <g id="ytick_2">
     <g id="line2d_11">
      <g>
       <use xlink:href="#mb4c2609575" x="57.6" y="222.912" style="stroke: #000000; stroke-width: 0.8"/>
      </g>
     </g>
     <g id="text_12">
      <!-- −0.02 -->
      <g transform="translate(19.954687 226.711219)scale(0.1 -0.1)">
       <use xlink:href="#DejaVuSans-2212"/>
       <use xlink:href="#DejaVuSans-30" x="83.789062"/>
       <use xlink:href="#DejaVuSans-2e" x="147.412109"/>
       <use xlink:href="#DejaVuSans-30" x="179.199219"/>
       <use xlink:href="#DejaVuSans-32" x="242.822266"/>
      </g>
     </g>
    </g>
    <g id="ytick_3">
     <g id="line2d_12">
      <g>
       <use xlink:href="#mb4c2609575" x="57.6" y="174.528" style="stroke: #000000; stroke-width: 0.8"/>
      </g>
     </g>
     <g id="text_13">
      <!-- 0.00 -->
      <g transform="translate(28.334375 178.327219)scale(0.1 -0.1)">
       <use xlink:href="#DejaVuSans-30"/>
       <use xlink:href="#DejaVuSans-2e" x="63.623047"/>
       <use xlink:href="#DejaVuSans-30" x="95.410156"/>
       <use xlink:href="#DejaVuSans-30" x="159.033203"/>
      </g>
     </g>
    </g>
    <g id="ytick_4">
     <g id="line2d_13">
      <g>
       <use xlink:href="#mb4c2609575" x="57.6" y="126.144" style="stroke: #000000; stroke-width: 0.8"/>
      </g>
     </g>
     <g id="text_14">
      <!-- 0.02 -->
      <g transform="translate(28.334375 129.943219)scale(0.1 -0.1)">
       <use xlink:href="#DejaVuSans-30"/>
       <use xlink:href="#DejaVuSans-2e" x="63.623047"/>
       <use xlink:href="#DejaVuSans-30" x="95.410156"/>
       <use xlink:href="#DejaVuSans-32" x="159.033203"/>
      </g>
     </g>
    </g>
    <g id="ytick_5">
     <g id="line2d_14">
      <g>
       <use xlink:href="#mb4c2609575" x="57.6" y="77.76" style="stroke: #000000; stroke-width: 0.8"/>
      </g>
     </g>
     <g id="text_15">
      <!-- 0.04 -->
      <g transform="translate(28.334375 81.559219)scale(0.1 -0.1)">
       <use xlink:href="#DejaVuSans-30"/>
       <use xlink:href="#DejaVuSans-2e" x="63.623047"/>
       <use xlink:href="#DejaVuSans-30" x="95.410156"/>
       <use xlink:href="#DejaVuSans-34" x="159.033203"/>
      </g>
     </g>
    </g>
    <g id="text_16">
     <!-- Neuron Index -->
     <g transform="translate(13.875 208.0405)rotate(-90)scale(0.1 -0.1)">
      <defs>
       <path id="DejaVuSans-4e" d="M 628 4666 
L 1478 4666 
L 3547 763 
L 3547 4666 
L 4159 4666 
L 4159 0 
L 3309 0 
L 1241 3903 
L 1241 0 
L 628 0 
L 628 4666 
z
" transform="scale(0.015625)"/>
       <path id="DejaVuSans-75" d="M 544 1381 
L 544 3500 
L 1119 3500 
L 1119 1403 
Q 1119 906 1312 657 
Q 1506 409 1894 409 
Q 2359 409 2629 706 
Q 2900 1003 2900 1516 
L 2900 3500 
L 3475 3500 
L 3475 0 
L 2900 0 
L 2900 538 
Q 2691 219 2414 64 
Q 2138 -91 1772 -91 
Q 1169 -91 856 284 
Q 544 659 544 1381 
z
M 1991 3584 
L 1991 3584 
z
" transform="scale(0.015625)"/>
       <path id="DejaVuSans-72" d="M 2631 2963 
Q 2534 3019 2420 3045 
Q 2306 3072 2169 3072 
Q 1681 3072 1420 2755 
Q 1159 2438 1159 1844 
L 1159 0 
L 581 0 
L 581 3500 
L 1159 3500 
L 1159 2956 
Q 1341 3275 1631 3429 
Q 1922 3584 2338 3584 
Q 2397 3584 2469 3576 
Q 2541 3569 2628 3553 
L 2631 2963 
z
" transform="scale(0.015625)"/>
       <path id="DejaVuSans-6f" d="M 1959 3097 
Q 1497 3097 1228 2736 
Q 959 2375 959 1747 
Q 959 1119 1226 758 
Q 1494 397 1959 397 
Q 2419 397 2687 759 
Q 2956 1122 2956 1747 
Q 2956 2369 2687 2733 
Q 2419 3097 1959 3097 
z
M 1959 3584 
Q 2709 3584 3137 3096 
Q 3566 2609 3566 1747 
Q 3566 888 3137 398 
Q 2709 -91 1959 -91 
Q 1206 -91 779 398 
Q 353 888 353 1747 
Q 353 2609 779 3096 
Q 1206 3584 1959 3584 
z
" transform="scale(0.015625)"/>
       <path id="DejaVuSans-6e" d="M 3513 2113 
L 3513 0 
L 2938 0 
L 2938 2094 
Q 2938 2591 2744 2837 
Q 2550 3084 2163 3084 
Q 1697 3084 1428 2787 
Q 1159 2491 1159 1978 
L 1159 0 
L 581 0 
L 581 3500 
L 1159 3500 
L 1159 2956 
Q 1366 3272 1645 3428 
Q 1925 3584 2291 3584 
Q 2894 3584 3203 3211 
Q 3513 2838 3513 2113 
z
" transform="scale(0.015625)"/>
       <path id="DejaVuSans-20" transform="scale(0.015625)"/>
       <path id="DejaVuSans-49" d="M 628 4666 
L 1259 4666 
L 1259 0 
L 628 0 
L 628 4666 
z
" transform="scale(0.015625)"/>
       <path id="DejaVuSans-64" d="M 2906 2969 
L 2906 4863 
L 3481 4863 
L 3481 0 
L 2906 0 
L 2906 525 
Q 2725 213 2448 61 
Q 2172 -91 1784 -91 
Q 1150 -91 751 415 
Q 353 922 353 1747 
Q 353 2572 751 3078 
Q 1150 3584 1784 3584 
Q 2172 3584 2448 3432 
Q 2725 3281 2906 2969 
z
M 947 1747 
Q 947 1113 1208 752 
Q 1469 391 1925 391 
Q 2381 391 2643 752 
Q 2906 1113 2906 1747 
Q 2906 2381 2643 2742 
Q 2381 3103 1925 3103 
Q 1469 3103 1208 2742 
Q 947 2381 947 1747 
z
" transform="scale(0.015625)"/>
       <path id="DejaVuSans-78" d="M 3513 3500 
L 2247 1797 
L 3578 0 
L 2900 0 
L 1881 1375 
L 863 0 
L 184 0 
L 1544 1831 
L 300 3500 
L 978 3500 
L 1906 2253 
L 2834 3500 
L 3513 3500 
z
" transform="scale(0.015625)"/>
      </defs>
      <use xlink:href="#DejaVuSans-4e"/>
      <use xlink:href="#DejaVuSans-65" x="74.804688"/>
      <use xlink:href="#DejaVuSans-75" x="136.328125"/>
      <use xlink:href="#DejaVuSans-72" x="199.707031"/>
      <use xlink:href="#DejaVuSans-6f" x="238.570312"/>
      <use xlink:href="#DejaVuSans-6e" x="299.751953"/>
      <use xlink:href="#DejaVuSans-20" x="363.130859"/>
      <use xlink:href="#DejaVuSans-49" x="394.917969"/>
      <use xlink:href="#DejaVuSans-6e" x="424.410156"/>
      <use xlink:href="#DejaVuSans-64" x="487.789062"/>
      <use xlink:href="#DejaVuSans-65" x="551.265625"/>
      <use xlink:href="#DejaVuSans-78" x="611.039062"/>
     </g>
    </g>
   </g>
   <g id="patch_3">
    <path d="M 57.6 307.584 
L 57.6 41.472 
" style="fill: none; stroke: #000000; stroke-width: 0.8; stroke-linejoin: miter; stroke-linecap: square"/>
   </g>
   <g id="patch_4">
    <path d="M 414.72 307.584 
L 414.72 41.472 
" style="fill: none; stroke: #000000; stroke-width: 0.8; stroke-linejoin: miter; stroke-linecap: square"/>
   </g>
   <g id="patch_5">
    <path d="M 57.6 307.584 
L 414.72 307.584 
" style="fill: none; stroke: #000000; stroke-width: 0.8; stroke-linejoin: miter; stroke-linecap: square"/>
   </g>
   <g id="patch_6">
    <path d="M 57.6 41.472 
L 414.72 41.472 
" style="fill: none; stroke: #000000; stroke-width: 0.8; stroke-linejoin: miter; stroke-linecap: square"/>
   </g>
  </g>
 </g>
 <defs>
  <clipPath id="p9d4f2d7153">
   <rect x="57.6" y="41.472" width="357.12" height="266.112"/>
  </clipPath>
 </defs>
</svg>
